<svg xmlns="http://www.w3.org/2000/svg" viewBox="0 0 200 60" fill="none">
  <!-- Shield -->
  <g transform="translate(5,2) scale(0.55)">
    <path d="M5 5 L5 55 Q5 75 25 85 L50 95 L75 85 Q95 75 95 55 L95 5 Z" fill="#c41e24" stroke="none"/>
    <path d="M10 10 L10 53 Q10 70 28 80 L50 90 L72 80 Q90 70 90 53 L90 10 Z" fill="#f5f5f0" stroke="none"/>
    <!-- Quadrants -->
    <line x1="50" y1="10" x2="50" y2="90" stroke="#c41e24" stroke-width="2"/>
    <line x1="10" y1="48" x2="90" y2="48" stroke="#c41e24" stroke-width="2"/>
    <!-- Q1: Castle -->
    <rect x="20" y="18" width="20" height="22" fill="#e8a830" rx="1"/>
    <rect x="24" y="15" width="4" height="5" fill="#e8a830"/>
    <rect x="32" y="15" width="4" height="5" fill="#e8a830"/>
    <rect x="28" y="28" width="4" height="12" fill="#c41e24"/>
    <!-- Q2: Green bar -->
    <rect x="55" y="22" width="30" height="8" fill="#2d8b46" rx="2" transform="rotate(-25 70 26)"/>
    <rect x="55" y="14" width="30" height="28" fill="#e8a830" opacity="0.3" rx="1"/>
    <!-- Q3: Trophy -->
    <rect x="20" y="55" width="20" height="15" fill="#1a5ba8" rx="1"/>
    <circle cx="30" cy="62" r="5" fill="#e8a830"/>
    <!-- Q4: Lion -->
    <rect x="55" y="55" width="30" height="15" fill="#1a5ba8" rx="1"/>
    <text x="70" y="66" text-anchor="middle" fill="#e8a830" font-size="14" font-weight="bold">♌</text>
  </g>
  <!-- Text -->
  <text x="62" y="22" fill="#1a2340" font-family="Georgia, serif" font-size="16" font-weight="700" letter-spacing="0.5">UFM</text>
  <text x="62" y="35" fill="#1a2340" font-family="Arial, sans-serif" font-size="5.5" font-weight="400" letter-spacing="0.8">UNIVERSIDAD</text>
  <text x="62" y="42" fill="#1a2340" font-family="Arial, sans-serif" font-size="5.5" font-weight="400" letter-spacing="0.8">FRANCISCO MARROQUÍN</text>
  <text x="62" y="54" fill="#8a8a8a" font-family="Arial, sans-serif" font-size="4.2" letter-spacing="1.5">VERITAS · LIBERTAS · JUSTITIA</text>
</svg>
